<?xml version="1.0" encoding="utf-8"?>
<!-- Generator: Adobe Illustrator 21.1.0, SVG Export Plug-In . SVG Version: 6.00 Build 0)  -->
<svg version="1.1" id="Capa_1" xmlns="http://www.w3.org/2000/svg" xmlns:xlink="http://www.w3.org/1999/xlink" x="0px" y="0px"
	 viewBox="0 0 95.8 105.9" style="enable-background:new 0 0 95.8 105.9;" xml:space="preserve">
<style type="text/css">
	.st0{fill:#EFC600;}
	.st1{fill:#FFFFFF;}
</style>
<g>
	<path class="st0" d="M85.7,105.9H10.1C4.5,105.9,0,101.4,0,95.8l0.1-85.8C0.1,4.5,4.6,0,10.2,0h75.6c5.5,0,10.1,4.5,10.1,10.1
		l-0.1,85.8C95.7,101.4,91.2,105.9,85.7,105.9z"/>
	<g>
		<path class="st1" d="M23.6,18.8C19.1,25,12.8,30.2,4.9,34.4l-1.8,0.8V48l13.7-7.5v48h12.9v-70h-5.9L23.6,18.8z"/>
		<path class="st1" d="M72.7,36.4c0-5.9-1.9-10.6-5.7-13.9c-3.7-3.3-8.9-5-15.4-5c-4,0-7.6,1.1-10.9,3.4c-3.3,2.2-5.7,5.1-7.2,8.5
			L33.2,30l8.9,7.7l0.6-1.1c2.4-4.7,5.5-6.9,9.4-6.9c5,0,7.3,2.1,7.3,6.7c0,4.1-1.9,9.3-5.7,15.4L34.1,83.6v4.8H74V75.8H54
			l12.3-19.3C70.9,48.6,72.7,41.7,72.7,36.4z"/>
		<polygon class="st1" points="84.1,50.2 84.1,41.9 79.7,41.9 79.7,50.2 71.2,50.2 71.2,54.7 79.7,54.7 79.7,63.1 84.1,63.1 
			84.1,54.7 92.7,54.7 92.7,50.2 		"/>
	</g>
</g>
</svg>
